PathFileType	4	(X/Y/Z)	/Users/itak/Documents/Research/Walk-IL/dataset/trc/00372_00011.trc
DataRate	CameraRate	NumFrames	NumMarkers	Units	OrigDataRate	OrigDataStartFrame	OrigNumFrames
100.000000	100.000000	4	56	mm	100.000000	0	581
Frame#	Time	RPSI			LPSI			L3			STRN			T10			C7			CLAV			RBAK			LBAK			LSHO			LUPA			LAEL			LAOL			LWPS			LFRA			LIFD			LHPS			LHTS			RSHO			RUPA			RAEL			RAOL			RWPS			RFRA			RIFD			RHTS			RHPS			RBHD			LFHD			RFHD			LBHD			LHIP			RHIP			RASI			LASI			LKNE			LTHI			LANK			LTIP			LTOE			LMT1			LMT5			LHEE			RKNE			RTHI			RANK			RTIP			RTOE			RMT1			RMT5			RHEE			LWTS			RWTS			*53			*54			*55			
		X1	Y1	Z1	X2	Y2	Z2	X3	Y3	Z3	X4	Y4	Z4	X5	Y5	Z5	X6	Y6	Z6	X7	Y7	Z7	X8	Y8	Z8	X9	Y9	Z9	X10	Y10	Z10	X11	Y11	Z11	X12	Y12	Z12	X13	Y13	Z13	X14	Y14	Z14	X15	Y15	Z15	X16	Y16	Z16	X17	Y17	Z17	X18	Y18	Z18	X19	Y19	Z19	X20	Y20	Z20	X21	Y21	Z21	X22	Y22	Z22	X23	Y23	Z23	X24	Y24	Z24	X25	Y25	Z25	X26	Y26	Z26	X27	Y27	Z27	X28	Y28	Z28	X29	Y29	Z29	X30	Y30	Z30	X31	Y31	Z31	X32	Y32	Z32	X33	Y33	Z33	X34	Y34	Z34	X35	Y35	Z35	X36	Y36	Z36	X37	Y37	Z37	X38	Y38	Z38	X39	Y39	Z39	X40	Y40	Z40	X41	Y41	Z41	X42	Y42	Z42	X43	Y43	Z43	X44	Y44	Z44	X45	Y45	Z45	X46	Y46	Z46	X47	Y47	Z47	X48	Y48	Z48	X49	Y49	Z49	X50	Y50	Z50	X51	Y51	Z51	X52	Y52	Z52	X53	Y53	Z53	X54	Y54	Z54	X55	Y55	Z55	X56	Y56	Z56	

1	0	-1288.733764648438	987.0416870117188	-58.19742202758789	-1277.970947265625	984.6421508789062	-186.3628387451172	-1282.696166992188	1037.483276367188	-119.9214859008789	-1062.060791015625	1230.035400390625	-119.2420349121094	-1295.874389648438	1154.216552734375	-137.4803161621094	-1264.564697265625	1403.978149414062	-160.4546051025391	-1107.630126953125	1354.5341796875	-132.2474517822266	-1313.767578125	1265.310424804688	-93.03324127197266	-1263.001831054688	1362.695434570312	-261.4144592285156	-1171.011596679688	1381.04931640625	-306.5941162109375	-1177.412353515625	1257.808837890625	-370.5326538085938	-1154.130859375	1054.6220703125	-373.0652770996094	-1226.224853515625	1040.9501953125	-329.69140625	-1076.586303710938	807.0138549804688	-354.1137084960938	-1131.76904296875	950.6704711914062	-371.1763610839844	-1035.916015625	664.884033203125	-269.1674194335938	-1074.383911132812	736.8521728515625	-342.0212707519531	-1031.186645507812	747.7023315429688	-296.2828674316406	-1228.890991210938	1400.344360351562	9.306479454040527	-1244.798461914062	1337.459716796875	73.06425476074219	-1228.818725585938	1073.40576171875	124.7370681762695	-1262.068115234375	1061.027587890625	36.63716888427734	-1136.184326171875	835.2212524414062	151.901123046875	-1198.963012695312	1007.010986328125	137.1516723632812	-1079.501586914062	679.471435546875	92.97868347167969	-1069.8779296875	750.5154418945312	99.45098876953125	-1116.966064453125	751.3721313476562	150.8992614746094	-1242.853393554688	1611.143432617188	-74.56268310546875	-1057.544677734375	1632.305908203125	-170.3657379150391	-1080.388549804688	1630.888916015625	-72.43208312988281	-1236.991333007812	1606.78662109375	-219.2745513916016	-1185.680908203125	923.687744140625	-282.6676940917969	-1218.784545898438	932.5619506835938	56.67672348022461	-1109.693969726562	958.4514770507812	20.78249931335449	-1068.557250976562	948.7662963867188	-215.1948699951172	-1174.194091796875	467.6168212890625	-265.0780944824219	-1159.353271484375	604.4603881835938	-275.0888366699219	-1254.582397460938	46.59619522094727	-252.7115478515625	-1216.981811523438	251.9319458007812	-272.6336059570312	-1047.046508789062	46.35475158691406	-196.8231048583984	-1113.150634765625	37.3316650390625	-152.55322265625	-1129.497924804688	43.01791000366211	-267.7232971191406	-1285.21533203125	44.08205032348633	-183.5330047607422	-1197.309692382812	466.2024536132812	57.95842361450195	-1154.567993164062	725.706787109375	73.50009155273438	-1247.13232421875	54.21616744995117	45.77962875366211	-1189.388427734375	349.5702819824219	49.92461395263672	-1054.549926757812	48.07735061645508	-6.489816665649414	-1110.669311523438	41.89861297607422	-47.12773132324219	-1145.897583007812	41.79459381103516	65.72840881347656	-1297.39599609375	53.7347297668457	-1.833581209182739	-1053.221313476562	825.8607177734375	-291.6063232421875	-1104.45068359375	849.844970703125	82.67498016357422	nan	nan	nan	nan	nan	nan	nan	nan	nan	
2	0.01	-1288.762451171875	987.0238037109375	-58.07967376708984	-1278.04833984375	984.6195678710938	-186.2733764648438	-1282.738647460938	1037.495239257812	-119.8235168457031	-1062.174560546875	1229.958251953125	-119.1505813598633	-1295.953247070312	1154.244384765625	-137.3778686523438	-1264.558349609375	1403.992919921875	-160.3740386962891	-1107.62841796875	1354.492553710938	-132.1744995117188	-1313.820678710938	1265.359252929688	-92.91763305664062	-1262.969360351562	1362.694580078125	-261.3313293457031	-1170.97998046875	1381.040405273438	-306.5079345703125	-1177.348388671875	1257.81884765625	-370.48193359375	-1154.049194335938	1054.65869140625	-373.17578125	-1226.107543945312	1040.932006835938	-329.7904663085938	-1076.6689453125	806.9755249023438	-354.626220703125	-1131.706298828125	950.6873168945312	-371.4177856445312	-1036.064086914062	664.6898803710938	-269.8176879882812	-1074.553588867188	736.8072509765625	-342.674560546875	-1031.321655273438	747.5059814453125	-296.9349975585938	-1228.845947265625	1400.369018554688	9.398178100585938	-1244.7548828125	1337.487060546875	73.11466217041016	-1228.955200195312	1073.412719726562	124.7881851196289	-1262.259887695312	1061.081909179688	36.70303344726562	-1136.47265625	835.12646484375	151.793212890625	-1199.21826171875	1006.990478515625	137.1739044189453	-1079.955810546875	679.315673828125	92.78818511962891	-1070.281127929688	750.3897705078125	99.30169677734375	-1117.302978515625	751.32421875	150.8018341064453	-1242.878051757812	1611.086181640625	-74.52818298339844	-1057.537841796875	1632.306640625	-170.3480682373047	-1080.379760742188	1630.890625	-72.41591644287109	-1237.003540039062	1606.706176757812	-219.2292633056641	-1185.805908203125	923.6748046875	-282.6028442382812	-1218.799682617188	932.5548095703125	56.75517654418945	-1109.662719726562	958.457763671875	20.8933048248291	-1068.601440429688	948.7493896484375	-215.1361694335938	-1174.237060546875	467.6285095214844	-265.0439453125	-1159.381469726562	604.4601440429688	-275.0218505859375	-1254.583740234375	46.60063934326172	-252.7077331542969	-1216.996215820312	251.9386291503906	-272.6145324707031	-1047.0458984375	46.36538696289062	-196.8141632080078	-1113.144165039062	37.33481216430664	-152.5537109375	-1129.49755859375	43.02054977416992	-267.7217712402344	-1285.21240234375	44.07563781738281	-183.5282135009766	-1197.257202148438	466.1830444335938	58.00441360473633	-1154.455810546875	725.7050170898438	73.54655456542969	-1247.137329101562	54.22020721435547	45.77974700927734	-1189.34130859375	349.5703735351562	49.95132446289062	-1054.549682617188	48.07748794555664	-6.489162921905518	-1110.6650390625	41.89542770385742	-47.12982177734375	-1145.896850585938	41.79437255859375	65.72862243652344	-1297.397583007812	53.74063491821289	-1.830873131752014	-1053.2197265625	825.6842041015625	-292.12255859375	-1104.794555664062	849.751953125	82.58027648925781	nan	nan	nan	nan	nan	nan	nan	nan	nan	
3	0.02	-1288.7978515625	987.0008544921875	-57.92417907714844	-1278.152954101562	984.5916137695312	-186.1559600830078	-1282.794799804688	1037.512817382812	-119.6938705444336	-1062.32470703125	1229.859985351562	-119.03271484375	-1296.054077148438	1154.283935546875	-137.2414703369141	-1264.551879882812	1404.015747070312	-160.2663116455078	-1107.625366210938	1354.439575195312	-132.0748748779297	-1313.890747070312	1265.425537109375	-92.76519012451172	-1262.927368164062	1362.697143554688	-261.2217712402344	-1170.936157226562	1381.033203125	-306.3924560546875	-1177.259521484375	1257.838134765625	-370.41455078125	-1153.949462890625	1054.710815429688	-373.3283081054688	-1225.959350585938	1040.91455078125	-329.9256896972656	-1076.802734375	806.9247436523438	-355.3252868652344	-1131.63916015625	950.714599609375	-371.7492065429688	-1036.323974609375	664.4009399414062	-270.6900024414062	-1074.808227539062	736.74658203125	-343.5628051757812	-1031.564208984375	747.2139892578125	-297.8099670410156	-1228.787963867188	1400.403198242188	9.51966381072998	-1244.702392578125	1337.523681640625	73.18665313720703	-1229.13623046875	1073.420654296875	124.8576507568359	-1262.521850585938	1061.157836914062	36.79246139526367	-1136.857177734375	835.0118408203125	151.6564025878906	-1199.5546875	1006.967712402344	137.2019805908203	-1080.5595703125	679.123046875	92.53995513916016	-1070.824951171875	750.2265014648438	99.10674285888672	-1117.760864257812	751.2615966796875	150.6708526611328	-1242.906982421875	1611.00390625	-74.47834014892578	-1057.537719726562	1632.3154296875	-170.3202514648438	-1080.3779296875	1630.902465820312	-72.39187622070312	-1237.013671875	1606.591186523438	-219.1712951660156	-1185.958740234375	923.6573486328125	-282.51318359375	-1218.8154296875	932.5459594726562	56.86075973510742	-1109.618774414062	958.4676513671875	21.03557205200195	-1068.663330078125	948.7265014648438	-215.0561676025391	-1174.29541015625	467.6434020996094	-264.9989013671875	-1159.415283203125	604.4594116210938	-274.9336853027344	-1254.585571289062	46.60585403442383	-252.7027740478516	-1217.014892578125	251.9477844238281	-272.5892944335938	-1047.04541015625	46.37740325927734	-196.8043365478516	-1113.135620117188	37.33885955810547	-152.5542602539062	-1129.4970703125	43.02397918701172	-267.7193908691406	-1285.208862304688	44.06781387329102	-183.5220031738281	-1197.186889648438	466.1592407226562	58.06344985961914	-1154.192504882812	725.5928344726562	73.44469451904297	-1247.14111328125	54.22316360473633	45.78190231323242	-1189.279663085938	349.5704650878906	49.98766708374023	-1054.54931640625	48.07756042480469	-6.48826789855957	-1110.66015625	41.89217376708984	-47.13261032104492	-1145.8955078125	41.79437255859375	65.72861480712891	-1297.399658203125	53.74761962890625	-1.827139735221863	-1053.237426757812	825.4532470703125	-292.8235168457031	-1105.256591796875	849.6345825195312	82.45326995849609	nan	nan	nan	nan	nan	nan	nan	nan	nan	
4	0.03	-1288.837524414062	986.9738159179688	-57.73444747924805	-1278.283081054688	984.559814453125	-186.0133666992188	-1282.863525390625	1037.53662109375	-119.5353927612305	-1062.508056640625	1229.7451171875	-118.8922348022461	-1296.17236328125	1154.3359375	-137.0738372802734	-1264.546508789062	1404.0478515625	-160.1329193115234	-1107.620727539062	1354.3779296875	-131.9488067626953	-1313.976318359375	1265.50830078125	-92.57951354980469	-1262.877319335938	1362.705078125	-261.0883178710938	-1170.880126953125	1381.03125	-306.2491455078125	-1177.145629882812	1257.8701171875	-370.3317565917969	-1153.838134765625	1054.780029296875	-373.5226745605469	-1225.787353515625	1040.902587890625	-330.0965576171875	-1076.998779296875	806.863037109375	-356.2072143554688	-1131.578369140625	950.7549438476562	-372.1698608398438	-1036.726440429688	664.0060424804688	-271.7717895507812	-1075.1591796875	736.6716918945312	-344.6798706054688	-1031.945434570312	746.8151245117188	-298.8952331542969	-1228.719360351562	1400.447265625	9.668569564819336	-1244.645141601562	1337.5693359375	73.28217315673828	-1229.357788085938	1073.42919921875	124.944938659668	-1262.852294921875	1061.255737304688	36.90512466430664	-1137.33154296875	834.8847045898438	151.4964904785156	-1199.962768554688	1006.945617675781	137.2348022460938	-1081.303833007812	678.9031982421875	92.24095153808594	-1071.50537109375	750.0294799804688	98.87057495117188	-1118.335571289062	751.1854858398438	150.5078582763672	-1242.937622070312	1610.895263671875	-74.41213226318359	-1057.54931640625	1632.3359375	-170.2804260253906	-1080.388916015625	1630.9296875	-72.35866546630859	-1237.018188476562	1606.439453125	-219.1031036376953	-1186.12890625	923.6357421875	-282.3983764648438	-1218.828979492188	932.535888671875	56.99242782592773	-1109.562133789062	958.4818725585938	21.20372009277344	-1068.742553710938	948.6983032226562	-214.9558715820312	-1174.368286132812	467.660888671875	-264.9438781738281	-1159.451293945312	604.4577026367188	-274.8263244628906	-1254.587890625	46.61144638061523	-252.6968078613281	-1217.037231445312	251.9593963623047	-272.5585021972656	-1047.045043945312	46.38952255249023	-196.7947845458984	-1113.12548828125	37.34366989135742	-152.5548248291016	-1129.49609375	43.0280647277832	-267.7160034179688	-1285.205200195312	44.05905914306641	-183.5145874023438	-1197.10009765625	466.1327819824219	58.13302612304688	-1153.717041015625	725.3093872070312	73.10031127929688	-1247.141967773438	54.22379684448242	45.78701400756836	-1189.205078125	349.5703735351562	50.03325271606445	-1054.548706054688	48.07752227783203	-6.487152576446533	-1110.654907226562	41.88930511474609	-47.13602447509766	-1145.8935546875	41.79476165771484	65.72823333740234	-1297.40234375	53.755126953125	-1.822397828102112	-1053.284301757812	825.173828125	-293.7046813964844	-1105.830322265625	849.497802734375	82.29603576660156	nan	nan	nan	nan	nan	nan	nan	nan	nan	
